<?xml version="1.0" standalone="no"?>
<!DOCTYPE svg PUBLIC "-//W3C//DTD SVG 20010904//EN"
 "http://www.w3.org/TR/2001/REC-SVG-20010904/DTD/svg10.dtd">
<svg version="1.0" xmlns="http://www.w3.org/2000/svg"
 width="491.000000pt" height="180.000000pt" viewBox="0 0 491.000000 180.000000"
 preserveAspectRatio="xMidYMid meet">

<g transform="translate(0.000000,180.000000) scale(0.100000,-0.100000)"
fill="#000000" stroke="none">
<path d="M796 1779 l-26 -20 0 -860 c0 -846 0 -859 20 -879 18 -18 33 -20 175
-20 142 0 157 2 175 20 20 20 20 33 20 878 0 471 -4 862 -8 868 -18 27 -56 34
-190 34 -126 0 -142 -2 -166 -21z"/>
<path d="M3785 1788 c-11 -6 -23 -16 -27 -22 -4 -6 -8 -397 -8 -868 0 -845 0
-858 20 -878 18 -18 33 -20 175 -20 142 0 157 2 175 20 20 20 20 33 20 879 l0
860 -26 20 c-24 19 -40 21 -168 21 -86 0 -149 -5 -161 -12z"/>
<path d="M350 1493 c-40 -14 -40 -17 -40 -593 0 -464 2 -559 14 -576 13 -17
30 -19 168 -22 144 -3 155 -2 181 18 l27 21 0 559 0 559 -26 20 c-24 19 -40
21 -168 20 -77 0 -148 -3 -156 -6z"/>
<path d="M4250 1493 c-40 -14 -40 -17 -40 -593 0 -464 2 -559 14 -576 13 -17
30 -19 168 -22 144 -3 155 -2 181 18 l27 21 0 559 0 559 -26 20 c-24 19 -40
21 -168 20 -77 0 -148 -3 -156 -6z"/>
<path d="M21 1074 c-19 -24 -21 -40 -21 -179 0 -139 2 -155 21 -179 20 -25 24
-26 125 -26 l104 0 0 205 0 205 -104 0 c-101 0 -105 -1 -125 -26z"/>
<path d="M1260 900 l0 -200 1195 0 1195 0 0 200 0 200 -1195 0 -1195 0 0 -200z"/>
<path d="M4660 895 l0 -205 104 0 c101 0 105 1 125 26 19 24 21 40 21 179 0
139 -2 155 -21 179 -20 25 -24 26 -125 26 l-104 0 0 -205z"/>
</g>
</svg>
