<?xml version="1.0" standalone="no"?>
<!DOCTYPE svg PUBLIC "-//W3C//DTD SVG 20010904//EN"
 "http://www.w3.org/TR/2001/REC-SVG-20010904/DTD/svg10.dtd">
<svg version="1.0" xmlns="http://www.w3.org/2000/svg"
 width="333.000000pt" height="397.000000pt" viewBox="0 0 333.000000 397.000000"
 preserveAspectRatio="xMidYMid meet">

<g transform="translate(0.000000,397.000000) scale(0.100000,-0.100000)"
fill="#000000" stroke="none">
<path d="M1335 3959 c-145 -13 -388 -55 -507 -89 -348 -97 -588 -292 -724
-584 -181 -393 -113 -891 192 -1396 31 -52 66 -120 77 -150 26 -75 25 -195 -4
-390 -29 -197 -31 -397 -5 -520 47 -218 146 -406 295 -558 118 -120 232 -191
388 -239 l88 -28 525 0 c480 0 531 2 590 18 267 76 473 262 623 562 141 284
163 567 71 927 -21 82 -25 118 -21 174 6 78 18 107 120 284 299 518 358 946
182 1318 -170 359 -503 564 -1042 641 -270 39 -606 51 -848 30z m810 -603
c251 -32 338 -66 435 -172 145 -157 155 -478 24 -752 -66 -137 -140 -157 -324
-85 -223 87 -378 117 -600 117 -236 0 -399 -34 -633 -130 -68 -28 -134 -48
-168 -51 -53 -5 -58 -4 -96 30 -48 43 -123 196 -154 312 -28 106 -31 283 -5
370 46 158 160 249 376 304 69 17 269 49 530 85 85 11 433 -5 615 -28z"/>
</g>
</svg>
