<svg id="svg" xmlns="http://www.w3.org/2000/svg" xmlns:xlink="http://www.w3.org/1999/xlink" width="400" height="54.23728813559322" viewBox="0, 0, 400,54.23728813559322" version="1.1"><g id="svgg"><path id="path0" d="M21.808 5.799 C 3.336 9.749,1.401 36.178,19.096 42.836 C 22.416 44.085,22.016 44.068,48.042 44.068 L 72.090 44.068 72.090 24.746 L 72.090 5.424 47.740 5.442 C 27.024 5.458,23.154 5.511,21.808 5.799 M73.672 24.746 L 73.672 44.068 85.819 44.038 C 93.455 44.019,97.325 43.940,96.241 43.825 C 83.470 42.471,75.601 29.655,80.208 17.710 C 82.724 11.185,89.143 6.303,96.045 5.664 C 97.245 5.553,93.409 5.475,85.819 5.455 L 73.672 5.424 73.672 24.746 M51.031 6.245 C 63.562 8.868,69.851 23.311,63.280 34.372 C 56.310 46.103,39.440 46.761,31.536 35.611 C 21.610 21.608,34.155 2.711,51.031 6.245 M369.623 7.924 C 362.849 8.710,358.255 11.792,357.605 15.989 L 357.456 16.949 361.863 16.949 L 366.270 16.949 366.414 16.051 C 367.056 12.031,376.271 11.460,376.271 15.439 C 376.271 17.386,375.647 18.021,367.835 24.026 C 364.997 26.208,361.008 29.469,358.970 31.273 C 356.933 33.078,354.655 35.042,353.909 35.639 C 352.390 36.854,352.455 37.001,354.347 36.629 C 357.721 35.965,361.131 36.329,365.859 37.858 C 372.022 39.850,375.523 39.797,381.374 37.622 L 383.652 36.776 384.809 33.028 C 385.446 30.968,385.937 29.251,385.901 29.215 C 385.864 29.179,385.081 29.495,384.160 29.918 C 379.134 32.227,374.756 32.731,370.383 31.504 L 369.085 31.140 373.752 27.627 C 384.334 19.661,385.555 18.430,385.919 15.357 C 386.547 10.055,379.392 6.792,369.623 7.924 M322.599 10.621 L 321.994 12.203 319.555 12.203 L 317.116 12.203 316.863 13.207 C 316.724 13.760,316.610 14.268,316.610 14.337 C 316.610 14.407,317.627 14.463,318.870 14.463 C 320.113 14.463,321.130 14.533,321.130 14.619 C 321.130 14.705,320.053 18.595,318.736 23.263 C 315.779 33.745,315.689 34.393,316.979 35.926 C 320.808 40.477,333.283 37.731,336.369 31.657 C 337.186 30.050,337.192 30.056,334.986 30.056 L 332.992 30.056 332.479 31.175 C 330.823 34.783,325.882 37.336,325.874 34.588 C 325.873 34.271,327.160 29.613,328.733 24.237 L 331.594 14.463 334.371 14.463 C 335.899 14.463,337.194 14.387,337.249 14.294 C 337.304 14.201,337.421 13.692,337.508 13.164 L 337.667 12.203 334.949 12.203 L 332.230 12.203 332.768 10.621 L 333.306 9.040 328.255 9.040 L 323.203 9.040 322.599 10.621 M117.288 11.455 C 102.948 13.837,94.597 27.177,102.701 34.758 C 109.275 40.908,120.740 39.631,129.096 31.819 C 130.991 30.047,131.005 30.056,126.497 30.057 L 122.599 30.057 122.216 31.356 C 121.307 34.444,119.527 35.967,116.335 36.390 C 113.292 36.793,111.362 36.235,110.583 34.727 C 109.434 32.506,113.160 19.248,116.031 15.340 C 117.503 13.336,120.573 12.627,122.031 13.955 L 122.713 14.576 122.245 16.045 C 121.179 19.390,122.801 21.520,126.441 21.555 C 132.284 21.612,133.441 15.355,128.063 12.786 C 125.433 11.529,120.507 10.920,117.288 11.455 M151.588 11.734 C 138.248 14.636,130.565 24.302,135.050 32.542 C 140.934 43.353,165.479 38.886,170.280 26.131 C 173.767 16.865,163.687 9.101,151.588 11.734 M178.231 11.469 C 178.072 11.737,169.944 37.082,169.944 37.310 C 169.944 37.426,172.186 37.514,175.132 37.514 L 180.320 37.514 180.769 35.989 C 181.016 35.150,181.789 32.432,182.486 29.950 C 184.714 22.022,185.439 20.699,189.576 17.016 C 192.135 14.738,193.682 13.790,194.851 13.787 C 196.719 13.783,196.630 14.729,193.887 24.041 C 190.842 34.375,190.858 35.532,194.065 37.153 C 195.674 37.966,201.782 38.107,202.510 37.348 C 202.977 36.860,202.813 35.459,202.257 35.182 C 201.389 34.749,201.413 34.610,203.810 26.045 C 206.856 15.165,206.844 15.325,204.779 13.333 C 203.197 11.808,201.883 11.412,198.418 11.415 C 194.177 11.420,192.319 12.244,188.133 15.975 L 185.804 18.052 186.913 14.741 C 187.523 12.919,188.023 11.400,188.023 11.364 C 188.023 11.212,178.322 11.315,178.231 11.469 M226.215 11.442 C 209.543 14.602,202.146 30.752,214.576 36.849 C 221.892 40.437,230.930 38.512,237.797 31.903 C 239.801 29.974,239.913 30.056,235.308 30.056 L 231.293 30.056 231.012 31.243 C 230.184 34.726,227.821 36.420,223.729 36.465 C 218.469 36.522,217.985 33.181,221.702 22.486 C 224.158 15.419,225.821 13.333,229.002 13.333 C 231.288 13.333,231.719 14.081,230.960 16.732 C 230.164 19.512,232.003 21.524,235.367 21.554 C 240.492 21.599,242.266 16.153,238.038 13.353 C 235.697 11.802,229.552 10.809,226.215 11.442 M259.209 11.729 C 245.286 14.804,237.360 27.929,245.135 35.035 C 251.740 41.071,266.898 39.133,273.512 31.407 C 274.695 30.025,274.769 30.056,270.308 30.056 L 266.266 30.056 266.118 31.042 C 265.579 34.641,262.690 36.464,257.514 36.474 C 253.085 36.482,252.341 35.021,253.846 29.266 L 254.378 27.232 258.545 27.087 C 270.847 26.659,277.297 22.364,274.933 16.174 C 273.494 12.406,265.884 10.254,259.209 11.729 M278.089 26.836 C 275.987 35.381,274.225 42.500,274.172 42.655 C 274.097 42.876,275.237 42.938,279.383 42.938 L 284.689 42.938 284.831 42.203 C 284.909 41.799,285.338 39.917,285.786 38.020 L 286.598 34.572 287.798 35.791 C 295.785 43.907,313.710 33.283,312.937 20.890 C 312.344 11.382,299.172 7.793,292.128 15.220 L 290.809 16.610 291.364 15.141 C 291.670 14.333,292.085 13.279,292.287 12.797 C 292.952 11.218,293.225 11.299,287.283 11.299 L 281.910 11.299 278.089 26.836 M157.951 13.555 C 159.029 13.864,159.943 14.813,160.105 15.790 C 160.527 18.340,156.646 32.132,154.731 34.887 C 153.264 36.997,145.750 37.187,144.816 35.137 C 144.154 33.685,148.045 18.008,149.600 15.862 C 151.115 13.770,154.979 12.703,157.951 13.555 M265.441 13.762 C 268.861 15.315,266.943 21.891,262.422 24.111 C 261.207 24.708,255.141 25.257,255.141 24.770 C 255.141 24.209,258.041 16.600,258.575 15.760 C 260.005 13.512,262.983 12.645,265.441 13.762 M301.952 13.931 C 305.015 15.715,298.140 35.275,294.064 36.370 C 290.102 37.435,287.259 33.831,287.925 28.588 C 289.176 18.748,296.709 10.877,301.952 13.931 M386.384 40.694 C 384.481 41.698,383.650 44.410,384.626 46.427 C 386.653 50.614,392.768 49.201,392.768 44.545 C 392.768 41.117,389.414 39.094,386.384 40.694 M390.283 41.638 C 392.714 43.298,392.247 46.836,389.471 47.790 C 387.414 48.497,385.310 46.819,385.312 44.474 C 385.314 41.884,388.217 40.228,390.283 41.638 M386.893 44.606 C 386.893 47.081,386.919 47.232,387.345 47.232 C 387.736 47.232,387.797 47.081,387.797 46.102 C 387.797 44.491,388.800 44.598,389.264 46.258 C 389.624 47.546,390.607 47.672,390.384 46.402 C 390.300 45.926,390.094 45.317,389.927 45.049 C 389.667 44.634,389.671 44.543,389.952 44.435 C 390.323 44.293,390.399 43.020,390.069 42.498 C 389.934 42.285,389.343 42.137,388.377 42.076 L 386.893 41.981 386.893 44.606 M389.254 43.327 C 389.423 43.769,388.854 44.294,388.205 44.294 C 387.902 44.294,387.797 44.119,387.797 43.616 C 387.797 42.818,388.969 42.586,389.254 43.327 " stroke="none" fill="#000000" fill-rule="evenodd"></path></g></svg>