<svg id="svg" xmlns="http://www.w3.org/2000/svg" xmlns:xlink="http://www.w3.org/1999/xlink" width="400" height="232.90322580645162" viewBox="0, 0, 400,232.90322580645162" version="1.1"><g id="svgg"><path id="path0" d="M86.490 18.917 C 82.208 20.876,78.760 22.532,78.828 22.597 C 78.896 22.662,91.835 30.788,107.581 40.655 C 123.327 50.523,136.308 58.686,136.429 58.797 C 136.620 58.972,139.147 103.961,138.990 104.373 C 138.969 104.428,117.226 94.140,90.673 81.510 C 64.120 68.881,42.344 58.548,42.282 58.548 C 42.219 58.548,41.871 59.147,41.507 59.879 C 41.143 60.611,34.773 72.491,27.352 86.279 C 19.930 100.067,13.891 111.432,13.930 111.535 C 13.982 111.669,14.599 111.705,16.074 111.660 C 17.582 111.615,103.651 109.630,138.629 108.834 L 140.726 108.787 148.243 114.192 C 152.377 117.164,168.417 128.630,183.888 139.671 L 212.016 159.745 239.516 191.083 C 254.641 208.319,267.162 222.600,267.341 222.819 L 267.667 223.217 312.503 214.756 C 375.608 202.848,378.077 202.375,378.025 202.221 C 378.000 202.145,356.069 187.547,329.291 169.782 L 280.602 137.481 274.417 125.232 C 271.015 118.496,268.213 112.933,268.189 112.871 C 268.165 112.809,267.202 112.635,266.048 112.484 C 259.598 111.640,194.598 102.241,194.503 102.139 C 194.440 102.071,187.518 93.778,179.119 83.710 C 170.720 73.641,163.400 64.866,162.852 64.209 C 162.304 63.552,161.813 62.951,161.761 62.873 C 161.710 62.794,161.456 62.693,161.197 62.648 C 160.938 62.603,158.222 61.874,155.161 61.028 C 152.101 60.182,147.101 58.805,144.050 57.969 L 138.503 56.448 137.396 55.442 C 136.787 54.888,126.958 45.635,115.553 34.879 C 103.902 23.890,94.698 15.330,94.546 15.339 C 94.396 15.348,90.771 16.958,86.490 18.917 M109.500 33.285 C 117.936 41.257,124.839 47.801,124.839 47.828 C 124.839 47.886,85.291 23.091,85.124 22.928 C 85.012 22.818,93.838 18.702,94.057 18.762 C 94.115 18.777,101.064 25.313,109.500 33.285 M191.290 24.222 C 187.119 24.554,183.977 27.021,183.214 30.565 C 182.689 33.003,182.882 49.101,183.466 51.568 C 184.396 55.496,187.464 57.413,192.823 57.414 C 199.766 57.416,202.372 54.558,202.685 46.600 L 202.792 43.871 198.504 43.871 L 194.216 43.871 194.164 47.467 C 194.103 51.722,194.039 51.935,192.823 51.935 C 191.473 51.935,191.539 52.459,191.483 41.378 C 191.423 29.488,191.402 29.674,192.863 29.680 C 194.127 29.685,194.194 29.940,194.194 34.769 L 194.194 38.710 198.468 38.710 L 202.742 38.710 202.741 36.573 C 202.739 33.939,202.495 31.067,202.162 29.768 C 201.172 25.905,196.985 23.768,191.290 24.222 M275.484 40.726 L 275.484 56.774 279.677 56.774 L 283.871 56.774 283.871 50.161 L 283.871 43.548 286.452 43.548 L 289.032 43.548 289.032 40.403 L 289.032 37.258 286.452 37.258 L 283.871 37.258 283.871 34.274 L 283.871 31.290 286.774 31.290 L 289.677 31.290 289.677 27.984 L 289.677 24.677 282.581 24.677 L 275.484 24.677 275.484 40.726 M290.645 26.855 L 290.645 29.032 294.839 29.032 L 299.032 29.032 299.032 26.855 L 299.032 24.677 294.839 24.677 L 290.645 24.677 290.645 26.855 M301.613 29.032 L 301.613 31.129 300.726 31.129 L 299.839 31.129 299.839 33.306 L 299.839 35.484 300.718 35.484 L 301.598 35.484 301.646 44.556 C 301.700 54.795,301.659 54.461,302.986 55.625 C 304.132 56.632,304.377 56.681,308.508 56.744 L 312.258 56.800 312.258 54.610 L 312.258 52.419 311.321 52.419 C 309.626 52.419,309.766 53.171,309.707 43.723 L 309.656 35.484 310.796 35.484 L 311.935 35.484 311.935 33.306 L 311.935 31.129 310.806 31.129 L 309.677 31.129 309.677 29.032 L 309.677 26.935 305.645 26.935 L 301.613 26.935 301.613 29.032 M216.613 30.223 C 215.131 30.549,214.202 31.189,213.293 32.509 C 212.485 33.683,212.497 33.723,212.831 31.089 L 212.907 30.484 208.792 30.484 L 204.677 30.484 204.677 43.629 L 204.677 56.774 208.790 56.774 L 212.903 56.774 212.907 49.637 C 212.912 40.038,213.109 39.516,216.723 39.516 L 217.581 39.516 217.581 34.758 C 217.581 32.141,217.563 30.006,217.540 30.014 C 217.518 30.021,217.101 30.115,216.613 30.223 M225.726 30.189 C 221.567 30.501,219.161 32.675,218.461 36.757 C 218.093 38.898,218.196 50.740,218.594 52.076 C 219.716 55.844,222.070 57.249,227.273 57.255 C 232.511 57.262,235.444 55.249,236.330 51.042 C 236.686 49.351,236.611 36.951,236.237 35.726 C 235.001 31.670,231.386 29.766,225.726 30.189 M244.839 30.176 C 239.782 30.530,238.005 32.430,237.991 37.500 C 237.980 41.710,238.610 42.799,242.307 44.960 C 248.303 48.464,247.903 48.086,247.903 50.247 C 247.903 51.970,247.637 52.412,246.598 52.417 C 245.573 52.421,245.411 52.065,245.350 49.661 L 245.297 47.581 241.657 47.581 L 238.016 47.581 238.110 49.718 C 238.349 55.202,240.770 57.247,247.031 57.255 C 252.560 57.263,254.871 55.466,255.361 50.779 C 255.906 45.564,254.859 44.004,248.718 40.879 C 246.117 39.556,245.391 38.827,245.239 37.388 C 245.077 35.844,245.441 35.101,246.396 35.032 C 247.403 34.958,247.581 35.310,247.581 37.375 L 247.581 39.032 251.232 39.032 L 254.884 39.032 254.802 36.815 C 254.707 34.234,254.555 33.760,253.443 32.570 C 251.671 30.676,248.863 29.895,244.839 30.176 M263.226 30.176 C 258.169 30.530,256.392 32.430,256.378 37.500 C 256.367 41.710,256.997 42.799,260.694 44.960 C 266.690 48.464,266.290 48.086,266.290 50.247 C 266.290 51.970,266.024 52.412,264.985 52.417 C 263.960 52.421,263.799 52.065,263.737 49.661 L 263.684 47.581 260.044 47.581 L 256.403 47.581 256.497 49.718 C 256.736 55.202,259.157 57.247,265.418 57.255 C 270.947 57.263,273.258 55.466,273.748 50.779 C 274.293 45.564,273.246 44.004,267.105 40.879 C 264.504 39.556,263.778 38.827,263.626 37.388 C 263.464 35.844,263.829 35.101,264.783 35.032 C 265.790 34.958,265.968 35.310,265.968 37.375 L 265.968 39.032 269.619 39.032 L 273.271 39.032 273.189 36.815 C 273.094 34.234,272.942 33.760,271.830 32.570 C 270.058 30.676,267.251 29.895,263.226 30.176 M290.645 43.629 L 290.645 56.774 294.839 56.774 L 299.032 56.774 299.032 43.629 L 299.032 30.484 294.839 30.484 L 290.645 30.484 290.645 43.629 M228.038 35.142 C 228.652 35.531,228.784 51.064,228.182 51.983 C 227.551 52.946,226.537 52.445,226.372 51.089 C 226.172 49.446,226.352 35.759,226.578 35.363 C 226.795 34.984,227.597 34.862,228.038 35.142 M149.815 62.569 C 155.256 64.070,159.746 65.337,159.792 65.383 C 159.838 65.430,155.821 73.627,150.865 83.599 C 145.910 93.572,141.838 101.686,141.818 101.632 C 141.611 101.073,139.620 59.839,139.800 59.839 C 139.867 59.839,144.374 61.067,149.815 62.569 M293.871 63.886 C 288.453 64.265,286.277 66.778,286.273 72.661 C 286.270 77.568,287.035 78.853,291.907 82.122 C 296.866 85.448,297.051 85.655,297.216 88.063 C 297.387 90.571,296.936 91.613,295.677 91.613 C 294.526 91.613,294.443 91.380,294.382 87.967 L 294.329 85.000 290.390 85.000 L 286.452 85.000 286.453 86.976 C 286.456 94.322,289.100 97.097,296.095 97.097 C 302.945 97.097,305.593 94.233,305.270 87.177 C 305.024 81.813,303.756 80.085,297.229 76.221 C 294.596 74.662,294.196 74.082,294.194 71.825 C 294.193 70.062,294.581 69.355,295.551 69.355 C 296.508 69.355,296.673 69.736,296.747 72.108 L 296.812 74.194 300.745 74.194 L 304.677 74.194 304.673 73.185 C 304.667 71.604,304.381 69.042,304.104 68.091 C 303.271 65.226,299.118 63.519,293.871 63.886 M45.396 80.323 C 47.023 88.617,48.307 95.453,48.249 95.514 C 48.095 95.678,19.786 106.936,19.712 106.863 C 19.677 106.828,24.754 97.310,30.994 85.712 C 37.521 73.579,42.360 64.755,42.389 64.933 C 42.416 65.103,43.770 72.028,45.396 80.323 M87.293 83.151 C 107.050 92.542,123.198 100.243,123.177 100.263 C 123.157 100.284,111.806 97.010,97.954 92.988 L 72.769 85.676 61.304 75.573 C 54.998 70.017,49.839 65.436,49.839 65.394 C 49.839 65.352,50.183 65.488,50.605 65.697 C 51.026 65.906,67.536 73.760,87.293 83.151 M58.024 76.600 L 69.816 86.990 60.544 90.690 C 55.443 92.724,51.227 94.345,51.173 94.291 C 51.119 94.237,49.854 87.933,48.362 80.282 C 46.871 72.631,45.609 66.200,45.560 65.990 C 45.438 65.481,44.434 64.626,58.024 76.600 M189.021 100.143 C 203.492 117.476,215.307 131.682,215.277 131.712 C 215.229 131.760,143.372 105.681,143.266 105.577 C 143.244 105.555,147.442 97.060,152.595 86.699 L 161.966 67.860 162.337 68.245 C 162.542 68.456,174.549 82.810,189.021 100.143 M237.258 69.854 C 231.865 70.231,229.516 72.995,229.516 78.963 L 229.516 80.484 233.284 80.484 L 237.051 80.484 237.132 77.934 C 237.228 74.950,237.319 74.677,238.228 74.677 C 239.257 74.677,239.435 75.109,239.435 77.589 C 239.435 80.223,239.470 80.186,235.454 81.786 C 229.856 84.016,229.597 84.362,229.597 89.597 C 229.597 93.310,229.785 94.260,230.730 95.306 C 232.678 97.462,237.148 97.506,239.013 95.387 L 239.677 94.632 239.677 95.542 L 239.677 96.452 243.629 96.452 L 247.581 96.452 247.581 87.298 C 247.580 78.147,247.460 75.289,247.021 74.046 C 245.933 70.963,242.498 69.488,237.258 69.854 M261.579 69.855 C 260.324 69.993,259.033 70.660,258.175 71.614 L 257.463 72.405 257.544 71.283 L 257.624 70.161 253.570 70.161 L 249.516 70.161 249.516 83.306 L 249.516 96.452 253.468 96.452 L 257.419 96.452 257.419 86.220 C 257.419 80.413,257.483 75.821,257.567 75.600 C 257.802 74.981,258.207 74.677,258.796 74.677 C 259.783 74.677,259.753 74.343,259.804 85.927 L 259.850 96.452 263.788 96.452 L 267.727 96.452 267.775 86.001 C 267.829 74.248,267.784 74.677,268.952 74.677 C 270.119 74.677,270.075 74.248,270.127 86.001 L 270.172 96.452 274.118 96.452 L 278.065 96.452 278.061 85.927 C 278.058 75.193,277.991 73.754,277.433 72.492 C 275.956 69.155,270.520 68.835,268.060 71.941 L 267.539 72.599 266.734 71.696 C 265.394 70.192,263.777 69.614,261.579 69.855 M314.107 69.864 C 310.391 70.177,307.949 72.029,307.003 75.249 C 306.640 76.487,306.467 88.075,306.779 90.275 C 307.404 94.677,310.544 96.935,316.040 96.935 C 322.244 96.935,324.985 94.035,324.997 87.460 L 325.000 85.645 321.129 85.645 L 317.258 85.645 317.257 88.105 C 317.256 91.500,317.045 92.101,315.857 92.094 C 314.804 92.089,314.686 91.609,314.681 87.298 L 314.677 84.032 319.860 84.032 L 325.042 84.032 324.958 80.524 C 324.758 72.235,321.693 69.224,314.107 69.864 M334.107 69.864 C 330.391 70.177,327.949 72.029,327.003 75.249 C 326.640 76.487,326.467 88.075,326.779 90.275 C 327.404 94.677,330.544 96.935,336.040 96.935 C 342.244 96.935,344.985 94.035,344.997 87.460 L 345.000 85.645 341.129 85.645 L 337.258 85.645 337.257 88.105 C 337.256 91.500,337.045 92.101,335.857 92.094 C 334.804 92.089,334.686 91.609,334.681 87.298 L 334.677 84.032 339.860 84.032 L 345.042 84.032 344.958 80.524 C 344.758 72.235,341.693 69.224,334.107 69.864 M316.526 75.049 C 316.695 75.306,316.803 76.076,316.877 77.549 L 316.985 79.677 315.813 79.677 L 314.641 79.677 314.702 77.441 C 314.771 74.943,314.871 74.677,315.742 74.677 C 316.129 74.677,316.352 74.783,316.526 75.049 M336.526 75.049 C 336.695 75.306,336.803 76.076,336.877 77.549 L 336.985 79.677 335.813 79.677 L 334.641 79.677 334.702 77.441 C 334.771 74.943,334.871 74.677,335.742 74.677 C 336.129 74.677,336.352 74.783,336.526 75.049 M239.487 88.726 C 239.428 91.990,239.375 92.142,238.322 92.064 C 237.367 91.994,237.188 91.539,237.196 89.194 C 237.203 86.712,237.363 86.219,238.508 85.144 L 239.435 84.274 239.487 85.081 C 239.516 85.524,239.516 87.164,239.487 88.726 M104.152 97.824 C 131.328 105.724,132.606 106.112,131.475 106.120 C 130.485 106.128,92.553 106.988,86.825 107.133 L 85.021 107.179 80.131 98.483 C 77.442 93.700,75.180 89.682,75.104 89.554 C 74.995 89.372,75.039 89.345,75.304 89.430 C 75.490 89.489,88.472 93.266,104.152 97.824 M76.684 98.325 C 79.404 103.170,81.600 107.163,81.564 107.199 C 81.470 107.293,26.813 108.566,25.163 108.512 L 23.794 108.468 47.502 99.008 C 60.541 93.805,71.329 89.541,71.474 89.532 C 71.661 89.521,73.183 92.090,76.684 98.325 M328.691 102.872 C 328.279 103.241,328.169 103.482,328.104 104.163 L 328.023 105.000 328.922 105.000 L 329.820 105.000 329.870 104.315 C 329.939 103.352,330.409 103.340,330.390 104.302 C 330.380 104.833,330.133 105.391,329.221 106.945 C 328.514 108.149,328.065 109.094,328.065 109.377 L 328.065 109.839 330.161 109.839 L 332.258 109.839 332.258 109.274 L 332.258 108.710 331.290 108.710 C 330.137 108.710,330.159 108.813,331.027 107.465 C 332.342 105.420,332.637 104.318,332.124 103.359 C 331.572 102.324,329.615 102.047,328.691 102.872 M333.129 102.968 L 332.581 103.516 332.581 106.210 L 332.581 108.903 333.129 109.452 C 334.048 110.370,335.972 110.208,336.612 109.157 C 337.025 108.480,337.092 104.397,336.706 103.473 C 336.209 102.282,334.111 101.986,333.129 102.968 M341.631 102.644 C 340.808 103.100,340.484 104.839,341.105 105.460 C 341.354 105.709,341.366 105.782,341.176 105.903 C 340.664 106.232,340.541 108.397,340.988 109.232 C 341.566 110.312,344.364 110.268,344.931 109.170 C 345.327 108.405,345.239 106.514,344.786 106.062 C 344.435 105.711,344.430 105.676,344.698 105.509 C 345.377 105.084,345.194 103.367,344.402 102.744 C 343.911 102.358,342.255 102.298,341.631 102.644 M338.629 102.989 C 338.363 103.208,337.909 103.465,337.621 103.561 C 336.948 103.784,336.846 104.516,337.488 104.516 C 338.294 104.516,338.387 104.817,338.387 107.431 L 338.387 109.839 339.355 109.839 L 340.323 109.839 340.323 106.210 L 340.323 102.581 339.718 102.586 C 339.320 102.590,338.947 102.728,338.629 102.989 M322.097 103.548 C 322.097 103.815,322.024 104.032,321.935 104.032 C 321.847 104.032,321.774 104.250,321.774 104.516 C 321.774 104.782,321.847 105.000,321.935 105.000 C 322.035 105.000,322.097 105.806,322.097 107.097 C 322.097 109.675,322.193 109.839,323.710 109.839 C 324.746 109.839,325.243 109.057,324.355 108.824 C 323.925 108.712,323.846 105.000,324.274 105.000 C 324.435 105.000,324.516 104.839,324.516 104.516 C 324.516 104.194,324.435 104.032,324.274 104.032 C 324.113 104.032,324.032 103.871,324.032 103.548 L 324.032 103.065 323.065 103.065 L 322.097 103.065 322.097 103.548 M334.964 106.263 C 334.905 109.490,334.613 109.543,334.552 106.338 C 334.506 103.893,334.564 103.370,334.848 103.655 C 334.945 103.751,334.991 104.793,334.964 106.263 M343.223 104.382 C 343.227 104.944,343.068 105.344,342.886 105.231 C 342.718 105.128,342.690 103.816,342.852 103.653 C 343.016 103.490,343.221 103.892,343.223 104.382 M314.274 104.023 C 312.845 104.609,312.783 108.927,314.194 109.632 C 315.688 110.379,317.397 109.594,317.541 108.095 L 317.622 107.258 316.633 107.258 L 315.645 107.258 315.645 107.894 C 315.645 108.563,315.424 108.884,315.259 108.454 C 315.205 108.314,315.161 107.915,315.161 107.567 L 315.161 106.935 316.371 106.935 L 317.581 106.935 317.581 106.204 C 317.581 104.354,316.006 103.315,314.274 104.023 M318.438 104.033 C 317.091 104.576,317.507 106.437,319.179 107.347 C 319.863 107.719,320.007 107.871,319.968 108.180 C 319.895 108.752,319.604 108.700,319.546 108.105 C 319.496 107.584,319.490 107.581,318.619 107.581 L 317.742 107.581 317.742 108.156 C 317.742 109.580,319.612 110.381,321.117 109.603 C 322.422 108.928,322.007 107.131,320.355 106.301 C 319.606 105.925,319.413 105.643,319.603 105.202 C 319.707 104.960,319.749 104.984,319.893 105.363 C 320.045 105.762,320.140 105.806,320.838 105.806 L 321.613 105.806 321.613 105.159 C 321.613 104.089,319.850 103.464,318.438 104.033 M315.645 105.574 C 315.645 105.816,315.552 105.968,315.403 105.968 C 315.162 105.968,315.057 105.320,315.264 105.112 C 315.447 104.929,315.645 105.169,315.645 105.574 M229.839 110.321 C 247.181 112.806,261.603 114.894,261.888 114.960 C 262.345 115.067,260.148 116.019,242.694 123.276 C 231.853 127.784,222.320 131.750,221.509 132.089 L 220.035 132.707 208.848 119.314 C 196.869 104.974,197.364 105.589,197.928 105.716 C 198.136 105.763,212.496 107.835,229.839 110.321 M343.194 107.758 C 343.166 108.341,343.075 108.774,342.984 108.752 C 342.803 108.709,342.672 107.028,342.819 106.644 C 343.023 106.112,343.241 106.759,343.194 107.758 M325.000 109.113 L 325.000 109.839 325.726 109.839 L 326.452 109.839 326.452 109.113 L 326.452 108.387 325.726 108.387 L 325.000 108.387 325.000 109.113 M184.355 123.630 C 202.851 130.351,218.033 135.895,218.094 135.949 C 218.154 136.004,216.973 140.440,215.468 145.806 C 213.964 151.173,212.679 155.770,212.613 156.021 C 212.494 156.476,212.355 156.380,180.561 133.702 C 145.073 108.389,147.680 110.296,149.435 110.938 C 150.145 111.198,165.859 116.909,184.355 123.630 M271.902 126.740 L 277.084 137.027 251.528 135.317 C 237.472 134.376,225.937 133.572,225.895 133.529 C 225.833 133.468,266.297 116.516,266.626 116.466 C 266.677 116.458,269.051 121.081,271.902 126.740 M250.529 138.128 C 265.502 139.133,277.775 139.984,277.804 140.018 C 277.876 140.104,268.130 216.278,268.036 216.373 C 267.982 216.426,225.701 141.431,223.100 136.669 C 222.932 136.361,222.932 136.291,223.100 136.295 C 223.213 136.298,235.557 137.122,250.529 138.128 M241.048 174.550 C 264.962 217.098,262.433 212.581,262.344 212.581 C 262.249 212.581,215.099 158.853,215.018 158.652 C 214.946 158.473,220.524 138.391,220.645 138.392 C 220.690 138.392,229.871 154.664,241.048 174.550 M296.705 161.910 L 305.426 172.315 288.249 194.543 C 278.802 206.769,271.055 216.754,271.033 216.732 C 270.993 216.692,280.241 144.052,280.407 143.101 C 280.498 142.582,280.562 142.646,284.242 147.039 C 286.300 149.496,291.908 156.188,296.705 161.910 M334.170 176.532 C 361.223 194.480,370.565 200.756,370.358 200.843 C 369.103 201.373,338.295 206.914,338.046 206.654 C 337.897 206.498,326.469 192.871,312.651 176.371 C 298.833 159.871,287.197 145.982,286.793 145.506 C 285.926 144.484,281.286 141.446,334.170 176.532 M321.134 191.062 C 328.686 200.074,334.825 207.487,334.776 207.536 C 334.649 207.663,273.516 219.199,273.216 219.152 C 273.017 219.121,307.135 174.677,307.359 174.677 C 307.383 174.677,313.582 182.051,321.134 191.062 " stroke="none" fill="#000000" fill-rule="evenodd"></path></g></svg>