<svg id="svg" xmlns="http://www.w3.org/2000/svg" xmlns:xlink="http://www.w3.org/1999/xlink" width="400" height="105" viewBox="0, 0, 400,105" version="1.1"><g id="svgg"><path id="path0" d="M17.083 1.160 C 10.423 3.256,4.346 8.082,1.606 13.452 C -0.873 18.311,-0.873 86.689,1.606 91.548 C 10.809 109.587,44.151 109.391,52.581 91.250 C 53.859 88.500,54.133 85.838,54.148 76.042 L 54.167 64.167 42.917 64.167 L 31.667 64.167 31.667 73.314 C 31.667 83.815,30.284 86.233,25.519 84.062 L 23.333 83.066 23.333 52.500 L 23.333 21.934 25.519 20.938 C 30.284 18.767,31.667 21.185,31.667 31.686 L 31.667 40.833 42.917 40.833 L 54.167 40.833 54.148 28.958 C 54.127 15.109,53.306 12.456,47.350 6.988 C 40.432 0.636,26.980 -1.954,17.083 1.160 M270.833 52.500 L 270.833 103.333 282.083 103.333 L 293.333 103.333 293.333 82.500 L 293.333 61.667 301.667 61.667 L 310.000 61.667 310.000 52.083 L 310.000 42.500 301.667 42.500 L 293.333 42.500 293.333 31.250 L 293.333 20.000 304.167 20.000 L 315.000 20.000 315.000 10.833 L 315.000 1.667 292.917 1.667 L 270.833 1.667 270.833 52.500 M319.167 10.833 L 319.167 20.000 330.417 20.000 L 341.667 20.000 341.667 10.833 L 341.667 1.667 330.417 1.667 L 319.167 1.667 319.167 10.833 M355.000 21.667 L 355.000 28.333 350.417 28.333 L 345.833 28.333 345.833 36.250 L 345.833 44.167 350.417 44.167 L 355.000 44.167 355.000 64.849 C 355.000 97.162,358.223 102.410,378.542 103.179 L 387.500 103.518 387.500 94.676 L 387.500 85.833 384.352 85.833 C 377.511 85.833,377.500 85.797,377.500 63.703 L 377.500 44.167 382.917 44.167 L 388.333 44.167 388.333 36.250 L 388.333 28.333 382.917 28.333 L 377.500 28.333 377.500 21.667 L 377.500 15.000 366.250 15.000 L 355.000 15.000 355.000 21.667 M60.000 65.000 L 60.000 103.333 71.250 103.333 L 82.500 103.333 82.500 78.752 L 82.500 54.171 85.386 50.977 C 88.268 47.787,92.669 45.833,96.972 45.833 L 99.167 45.833 99.167 36.134 L 99.167 26.435 95.057 26.921 C 90.198 27.497,84.798 30.067,82.972 32.674 L 81.667 34.538 81.655 32.477 C 81.623 26.646,81.663 26.667,70.319 26.667 L 60.000 26.667 60.000 65.000 M120.000 27.740 C 114.427 29.326,109.223 32.514,106.324 36.118 L 103.750 39.318 103.507 64.625 C 103.275 88.824,103.340 90.079,104.988 93.310 C 113.324 109.650,150.152 107.513,154.899 90.414 C 156.615 84.236,156.097 43.577,154.251 39.513 C 149.808 29.730,133.139 24.000,120.000 27.740 M176.789 27.510 C 166.197 29.746,161.247 36.249,161.256 47.917 C 161.265 59.567,164.434 64.087,177.279 70.769 C 188.751 76.738,193.002 82.712,188.780 86.934 C 185.123 90.591,180.833 87.715,180.833 81.607 L 180.833 77.500 170.833 77.500 L 160.833 77.500 160.833 84.420 C 160.833 96.307,166.445 102.120,179.942 104.214 C 213.803 109.468,223.376 73.908,192.407 57.914 C 181.641 52.353,178.972 48.530,183.191 44.712 C 186.824 41.425,190.000 43.580,190.000 49.333 L 190.000 53.333 200.417 53.333 L 210.833 53.333 210.833 48.901 C 210.833 32.438,196.402 23.371,176.789 27.510 M230.047 27.942 C 218.835 31.088,213.397 40.460,215.675 52.709 C 217.302 61.463,220.859 65.224,233.981 72.068 C 243.351 76.954,247.678 84.729,242.555 87.471 C 238.165 89.820,235.000 87.273,235.000 81.393 L 235.000 77.500 225.000 77.500 L 215.000 77.500 215.000 83.777 C 215.000 100.149,232.472 109.413,251.341 103.047 C 272.363 95.955,269.770 70.186,246.808 57.992 C 236.417 52.473,233.360 47.812,237.937 44.465 C 241.711 41.706,245.000 44.116,245.000 49.643 L 245.000 53.333 255.000 53.333 L 265.000 53.333 264.982 47.708 C 264.930 31.889,248.703 22.708,230.047 27.942 M319.167 65.833 L 319.167 103.333 330.417 103.333 L 341.667 103.333 341.667 65.833 L 341.667 28.333 330.417 28.333 L 319.167 28.333 319.167 65.833 M392.080 30.304 C 389.421 34.363,393.920 39.029,398.256 36.708 C 400.230 35.652,400.697 31.030,399.000 29.333 C 397.279 27.612,393.496 28.143,392.080 30.304 M396.667 34.583 C 397.533 35.627,397.416 35.833,395.962 35.833 C 394.755 35.833,394.367 35.449,394.699 34.583 C 394.962 33.896,395.280 33.333,395.404 33.333 C 395.528 33.333,396.096 33.896,396.667 34.583 M131.939 44.375 C 134.375 46.156,133.647 86.623,131.162 87.542 C 130.137 87.921,128.579 87.777,127.412 87.196 L 125.417 86.202 125.194 66.092 C 124.939 43.150,125.925 39.977,131.939 44.375 " stroke="none" fill="#000000" fill-rule="evenodd"></path></g></svg>