<svg id="svg" xmlns="http://www.w3.org/2000/svg" xmlns:xlink="http://www.w3.org/1999/xlink" width="400" height="169.38110749185668" viewBox="0, 0, 400,169.38110749185668" version="1.1"><g id="svgg"><path id="path0" d="M26.927 0.260 C 11.163 3.175,3.519 9.346,0.963 21.222 C 0.007 25.659,-0.137 75.527,0.787 81.868 C 2.834 95.919,9.504 103.109,22.531 105.307 C 25.620 105.828,24.975 105.869,12.921 105.919 L 0.000 105.972 0.000 137.676 L 0.000 169.381 200.000 169.381 L 400.000 169.381 400.000 137.676 L 400.000 105.972 218.567 105.923 C 76.493 105.885,37.746 105.762,39.957 105.355 C 48.652 103.757,56.264 98.449,59.757 91.548 C 61.735 87.638,62.535 82.407,62.846 71.336 L 63.093 62.541 49.619 62.541 L 36.146 62.541 35.931 73.073 C 35.659 86.428,35.142 88.165,31.439 88.165 C 27.321 88.165,27.251 87.665,27.039 56.895 C 26.782 19.350,27.082 17.359,32.847 18.440 C 35.557 18.948,35.764 20.026,35.962 34.636 L 36.135 47.340 49.603 47.340 L 63.071 47.340 62.853 36.374 C 62.430 15.156,59.652 9.016,47.979 3.501 C 43.028 1.161,31.581 -0.601,26.927 0.260 M133.333 3.474 L 133.333 6.949 135.505 6.949 L 137.676 6.949 137.676 5.212 C 137.676 3.571,137.749 3.474,138.979 3.474 L 140.282 3.474 140.282 10.423 L 140.282 17.372 138.762 17.372 C 137.278 17.372,137.242 17.414,137.242 19.110 L 137.242 20.847 142.454 20.847 L 147.666 20.847 147.666 19.110 C 147.666 17.414,147.629 17.372,146.145 17.372 L 144.625 17.372 144.625 10.423 L 144.625 3.474 146.145 3.474 C 147.629 3.474,147.666 3.516,147.666 5.212 L 147.666 6.949 149.620 6.949 L 151.574 6.949 151.574 3.474 L 151.574 0.000 142.454 0.000 L 133.333 0.000 133.333 3.474 M152.009 1.737 C 152.009 3.378,152.081 3.474,153.312 3.474 L 154.615 3.474 154.615 10.423 L 154.615 17.372 153.312 17.372 C 152.081 17.372,152.009 17.469,152.009 19.110 L 152.009 20.847 156.569 20.847 L 161.129 20.847 161.129 19.110 C 161.129 17.469,161.057 17.372,159.826 17.372 L 158.523 17.372 158.523 14.549 L 158.523 11.726 162.215 11.726 L 165.907 11.726 165.907 14.549 L 165.907 17.372 164.604 17.372 C 163.373 17.372,163.301 17.469,163.301 19.110 L 163.301 20.847 168.078 20.847 L 172.856 20.847 172.856 19.110 C 172.856 17.469,172.783 17.372,171.553 17.372 L 170.250 17.372 170.250 10.423 L 170.250 3.474 171.553 3.474 C 172.783 3.474,172.856 3.378,172.856 1.737 L 172.856 0.000 168.078 0.000 L 163.301 0.000 163.301 1.737 C 163.301 3.378,163.373 3.474,164.604 3.474 C 165.878 3.474,165.907 3.523,165.907 5.646 L 165.907 7.818 162.215 7.818 L 158.523 7.818 158.523 5.646 C 158.523 3.523,158.552 3.474,159.826 3.474 C 161.057 3.474,161.129 3.378,161.129 1.737 L 161.129 0.000 156.569 0.000 L 152.009 0.000 152.009 1.737 M173.290 1.737 C 173.290 3.433,173.326 3.474,174.810 3.474 L 176.330 3.474 176.330 10.423 L 176.330 17.372 174.810 17.372 C 173.326 17.372,173.290 17.414,173.290 19.110 L 173.290 20.847 181.542 20.847 L 189.794 20.847 189.794 17.372 L 189.794 13.898 188.056 13.898 L 186.319 13.898 186.319 15.635 L 186.319 17.372 183.062 17.372 L 179.805 17.372 179.805 14.549 L 179.805 11.726 183.931 11.726 L 188.056 11.726 188.056 9.989 L 188.056 8.252 183.931 8.252 L 179.805 8.252 179.805 5.863 L 179.805 3.474 183.062 3.474 L 186.319 3.474 186.319 4.995 C 186.319 6.478,186.361 6.515,188.056 6.515 L 189.794 6.515 189.794 3.257 L 189.794 0.000 181.542 0.000 L 173.290 0.000 173.290 1.737 M279.117 0.290 C 278.958 0.449,278.827 23.902,278.827 52.407 L 278.827 104.235 292.725 104.235 L 306.623 104.235 306.623 82.519 L 306.623 60.803 314.875 60.803 L 323.127 60.803 323.127 50.597 L 323.127 40.391 314.875 40.391 L 306.623 40.391 306.623 31.053 L 306.623 21.716 315.961 21.716 L 325.299 21.716 325.299 10.858 L 325.299 0.000 302.353 0.000 C 289.732 0.000,279.276 0.130,279.117 0.290 M330.076 10.858 L 330.076 21.716 340.282 21.716 L 350.489 21.716 350.489 10.858 L 350.489 0.000 340.282 0.000 L 330.076 0.000 330.076 10.858 M366.124 21.716 L 366.124 27.796 361.346 27.796 L 356.569 27.796 356.569 36.482 L 356.569 45.168 361.290 45.168 L 366.011 45.168 366.212 69.598 C 366.498 104.312,366.436 104.227,391.640 104.233 L 398.263 104.235 398.263 95.380 L 398.263 86.526 395.231 86.354 C 390.463 86.085,390.514 86.348,390.472 61.564 L 390.445 45.168 395.223 45.168 L 400.000 45.168 400.000 36.482 L 400.000 27.796 395.223 27.796 L 390.445 27.796 390.445 21.716 L 390.445 15.635 378.284 15.635 L 366.124 15.635 366.124 21.716 M123.996 25.357 C 113.390 28.011,108.232 33.942,106.610 45.349 C 105.854 50.669,105.727 78.885,106.432 84.908 C 108.151 99.583,115.435 105.171,132.899 105.211 C 147.664 105.244,155.089 101.017,159.133 90.273 C 161.059 85.155,161.834 53.314,160.278 43.243 C 158.147 29.454,141.135 21.068,123.996 25.357 M185.233 24.579 C 184.756 24.695,182.997 25.108,181.326 25.497 C 170.351 28.053,165.918 34.342,165.909 47.366 C 165.901 59.924,168.567 62.961,190.445 75.315 C 195.368 78.094,195.657 78.622,195.657 84.838 C 195.657 89.623,195.012 90.771,192.323 90.771 C 189.263 90.771,188.491 88.755,188.491 80.760 L 188.491 76.004 177.633 76.004 L 166.775 76.004 166.775 80.547 C 166.775 98.417,173.888 105.103,193.051 105.245 C 211.458 105.381,218.669 98.611,218.648 81.216 C 218.633 69.044,215.842 65.272,201.303 57.774 C 190.729 52.320,189.181 50.968,188.471 46.558 C 187.734 41.978,189.091 39.088,191.979 39.088 C 194.445 39.088,194.775 39.822,194.936 45.674 C 195.117 52.245,194.059 51.668,205.936 51.676 C 217.838 51.684,217.158 51.878,217.143 48.488 C 217.081 34.422,213.222 28.772,201.481 25.562 C 198.353 24.707,187.440 24.047,185.233 24.579 M237.567 25.511 C 225.539 28.674,221.859 34.488,222.509 49.303 C 222.982 60.059,225.626 63.338,240.700 71.861 C 251.896 78.190,252.327 78.659,252.332 84.517 C 252.336 89.186,251.316 90.771,248.304 90.771 C 245.552 90.771,245.188 89.848,245.028 82.475 L 244.889 76.004 233.784 76.004 L 222.680 76.004 222.921 81.976 C 223.610 98.987,230.940 105.299,249.946 105.244 C 266.912 105.195,273.881 99.334,274.714 84.413 C 275.526 69.858,272.726 65.476,257.773 57.892 C 247.064 52.460,245.240 50.824,244.804 46.254 C 244.343 41.414,245.444 39.081,248.183 39.095 C 250.669 39.107,250.801 39.411,250.961 45.475 C 251.055 49.074,251.285 51.140,251.612 51.348 C 252.334 51.807,271.973 51.747,272.705 51.284 C 273.726 50.637,272.986 38.285,271.772 35.701 C 267.485 26.580,251.550 21.833,237.567 25.511 M63.844 65.154 L 63.844 104.248 75.679 104.133 L 87.514 104.017 87.514 77.451 L 87.514 50.885 88.584 49.745 C 90.590 47.610,94.486 46.089,99.349 45.544 L 103.800 45.046 103.800 36.147 L 103.800 27.249 100.651 27.538 C 95.727 27.989,92.279 29.370,89.704 31.922 L 87.514 34.093 87.652 30.076 L 87.790 26.059 75.817 26.059 L 63.844 26.059 63.844 65.154 M330.076 65.798 L 330.076 104.235 340.282 104.235 L 350.489 104.235 350.489 65.798 L 350.489 27.362 340.282 27.362 L 330.076 27.362 330.076 65.798 M134.897 39.420 C 136.298 40.356,136.373 41.664,136.367 65.009 C 136.360 90.964,136.413 90.458,133.690 90.686 C 130.627 90.943,130.727 91.821,130.727 64.929 C 130.727 43.991,130.812 40.898,131.404 40.053 C 132.077 39.091,133.908 38.760,134.897 39.420 M63.409 114.224 L 63.409 118.132 59.935 118.132 L 56.460 118.132 56.460 136.545 C 56.460 164.808,56.452 164.821,38.436 164.821 C 22.394 164.821,20.413 163.144,20.413 149.570 L 20.413 143.322 24.756 143.322 L 29.099 143.322 29.099 149.372 C 29.099 157.347,28.392 156.786,38.443 156.786 C 48.923 156.786,47.774 159.284,47.774 136.494 L 47.774 118.132 43.431 118.132 L 39.088 118.132 39.088 114.224 L 39.088 110.315 51.249 110.315 L 63.409 110.315 63.409 114.224 M103.184 111.835 C 104.858 112.856,105.602 113.702,106.623 115.744 L 107.926 118.350 107.926 137.242 C 107.926 165.559,108.461 164.821,87.948 164.821 C 67.440 164.821,67.970 165.540,67.970 137.676 C 67.970 109.461,67.313 110.326,88.635 110.456 L 101.048 110.532 103.184 111.835 M135.505 114.224 L 135.505 118.132 131.813 118.132 L 128.122 118.132 128.122 136.665 C 128.122 153.300,128.195 155.279,128.840 155.992 C 130.065 157.345,148.635 157.192,149.595 155.821 C 150.181 154.984,150.271 152.410,150.271 136.494 L 150.271 118.132 146.580 118.132 L 142.888 118.132 142.888 114.224 L 142.888 110.315 154.397 110.315 L 165.907 110.315 165.907 114.224 L 165.907 118.132 162.449 118.132 L 158.991 118.132 158.866 137.785 L 158.740 157.438 157.487 159.699 C 154.831 164.493,152.224 165.179,137.479 164.960 C 119.463 164.693,119.749 165.134,119.544 137.351 L 119.401 118.132 115.944 118.132 L 112.486 118.132 112.486 114.224 L 112.486 110.315 123.996 110.315 L 135.505 110.315 135.505 114.224 M206.892 110.725 C 212.179 111.952,213.855 115.457,214.034 125.664 C 214.229 136.744,212.590 140.754,207.323 142.080 C 204.868 142.698,204.849 142.587,208.788 150.485 L 212.148 157.220 215.954 157.220 L 219.761 157.220 219.761 161.129 L 219.761 165.038 213.138 165.030 L 206.515 165.021 201.165 154.172 L 195.815 143.322 190.416 143.322 L 185.016 143.322 185.016 150.271 L 185.016 157.220 188.925 157.220 L 192.834 157.220 192.834 161.129 L 192.834 165.038 180.890 165.038 L 168.947 165.038 168.947 161.129 L 168.947 157.220 172.638 157.220 L 176.330 157.220 176.330 137.676 L 176.330 118.132 172.638 118.132 L 168.947 118.132 168.947 114.224 L 168.947 110.315 187.079 110.325 C 197.052 110.331,205.968 110.511,206.892 110.725 M242.780 114.297 C 244.093 116.473,245.564 118.861,246.048 119.604 C 246.532 120.347,248.661 123.789,250.779 127.253 C 252.896 130.717,255.253 134.528,256.015 135.722 C 256.777 136.916,258.734 140.092,260.364 142.780 C 261.994 145.467,263.493 147.666,263.694 147.666 C 263.896 147.666,264.061 141.021,264.061 132.899 L 264.061 118.132 259.935 118.132 L 255.809 118.132 255.809 114.224 L 255.809 110.315 267.535 110.315 L 279.262 110.315 279.262 114.224 L 279.262 118.132 275.787 118.132 L 272.313 118.132 272.313 141.585 L 272.313 165.038 268.425 165.038 L 264.538 165.038 262.969 162.324 C 262.106 160.831,260.874 158.786,260.233 157.779 C 259.591 156.772,257.210 152.920,254.940 149.218 C 252.671 145.516,250.033 141.222,249.077 139.676 C 248.122 138.129,245.894 134.506,244.128 131.624 C 242.361 128.742,240.749 126.384,240.545 126.384 C 240.341 126.384,240.174 133.322,240.174 141.802 L 240.174 157.220 244.300 157.220 L 248.426 157.220 248.426 161.129 L 248.426 165.038 236.265 165.038 L 224.104 165.038 224.104 161.129 L 224.104 157.220 227.796 157.220 L 231.488 157.220 231.488 137.676 L 231.488 118.132 227.796 118.132 L 224.104 118.132 224.104 114.224 L 224.104 110.315 232.248 110.329 L 240.391 110.342 242.780 114.297 M310.660 112.378 C 311.503 114.880,311.840 115.810,320.249 138.762 L 326.932 157.003 330.458 157.129 L 333.985 157.256 333.985 161.147 L 333.985 165.038 322.693 165.038 L 311.401 165.038 311.401 161.129 L 311.401 157.220 314.415 157.220 C 318.039 157.220,318.074 157.179,316.965 154.172 C 316.483 152.863,315.988 151.352,315.865 150.814 L 315.642 149.837 305.730 149.837 C 299.742 149.837,295.713 150.005,295.554 150.262 C 295.198 150.838,293.160 156.483,293.160 156.893 C 293.160 157.073,294.528 157.220,296.200 157.220 L 299.240 157.220 299.240 161.129 L 299.240 165.038 288.165 165.038 L 277.090 165.038 277.090 161.147 L 277.090 157.256 280.654 157.129 L 284.218 157.003 285.024 154.832 C 285.468 153.637,286.180 151.683,286.606 150.489 C 287.470 148.069,297.712 120.089,298.172 118.893 C 298.431 118.220,298.160 118.132,295.812 118.132 L 293.160 118.132 293.160 114.224 L 293.160 110.315 301.563 110.315 L 309.966 110.315 310.660 112.378 M363.518 114.224 L 363.518 118.132 359.175 118.132 L 354.832 118.132 354.832 137.459 L 354.832 156.786 363.952 156.786 L 373.073 156.786 373.073 151.792 L 373.073 146.797 377.199 146.797 L 381.325 146.797 381.325 155.917 L 381.325 165.038 360.043 165.038 L 338.762 165.038 338.762 161.129 L 338.762 157.220 342.454 157.220 L 346.145 157.220 346.145 137.676 L 346.145 118.132 342.454 118.132 L 338.762 118.132 338.762 114.224 L 338.762 110.315 351.140 110.315 L 363.518 110.315 363.518 114.224 M78.176 118.422 C 76.477 119.060,76.439 119.481,76.439 137.692 C 76.439 154.246,76.488 155.393,77.233 156.067 C 78.498 157.212,97.695 157.144,98.738 155.992 C 99.746 154.879,99.842 120.562,98.841 119.193 C 98.228 118.354,80.154 117.680,78.176 118.422 M185.115 126.469 L 185.233 134.853 194.715 134.853 C 206.401 134.853,205.429 135.602,205.429 126.602 C 205.429 117.617,206.415 118.380,194.597 118.217 L 184.997 118.085 185.115 126.469 M304.622 124.539 C 304.467 125.195,303.993 126.612,303.568 127.687 C 302.208 131.129,298.806 140.773,298.806 141.186 C 298.806 141.412,301.735 141.585,305.537 141.585 C 309.240 141.585,312.269 141.424,312.269 141.228 C 312.269 141.031,311.136 137.758,309.750 133.953 C 308.365 130.149,306.966 126.205,306.641 125.190 C 305.966 123.083,305.035 122.783,304.622 124.539 " stroke="none" fill="#000000" fill-rule="evenodd"></path></g></svg>