<svg id="svg" xmlns="http://www.w3.org/2000/svg" xmlns:xlink="http://www.w3.org/1999/xlink" width="400" height="384.37499999999994" viewBox="0, 0, 400,384.37499999999994" version="1.1"><g id="svgg"><path id="path0" d="M272.396 11.524 C 247.331 17.834,225.417 23.324,223.698 23.724 C 221.979 24.124,217.760 25.181,214.323 26.073 C 210.885 26.965,207.487 27.825,206.771 27.986 C 206.055 28.146,200.898 29.435,195.313 30.851 C 189.727 32.267,184.219 33.628,183.073 33.875 C 181.927 34.123,176.771 35.412,171.615 36.741 C 166.458 38.069,160.833 39.480,159.115 39.877 C 157.396 40.273,153.177 41.326,149.740 42.216 C 146.302 43.106,142.552 44.039,141.406 44.288 C 140.260 44.538,135.104 45.829,129.948 47.158 C 124.792 48.487,119.635 49.769,118.490 50.008 C 108.667 52.059,104.532 53.823,101.513 57.252 C 96.442 63.010,96.644 61.693,96.462 90.234 C 96.331 110.692,96.421 114.583,97.027 114.583 C 97.423 114.583,101.008 113.742,104.993 112.713 C 108.979 111.684,113.177 110.641,114.323 110.394 C 115.469 110.147,120.625 108.858,125.781 107.530 C 130.938 106.202,136.563 104.791,138.281 104.394 C 140.000 103.997,144.219 102.944,147.656 102.054 C 154.684 100.233,156.131 99.872,160.938 98.741 C 162.799 98.302,167.135 97.216,170.573 96.326 C 174.010 95.436,178.229 94.382,179.948 93.983 C 181.667 93.585,186.823 92.295,191.406 91.118 C 195.990 89.940,201.146 88.651,202.865 88.252 C 204.583 87.853,208.802 86.799,212.240 85.909 C 215.677 85.019,219.427 84.086,220.573 83.837 C 221.719 83.587,226.875 82.296,232.031 80.968 C 237.188 79.639,242.813 78.232,244.531 77.839 C 246.250 77.447,251.406 76.153,255.990 74.964 C 260.573 73.775,265.729 72.482,267.448 72.092 C 269.167 71.701,273.385 70.653,276.823 69.764 C 280.260 68.874,284.479 67.820,286.198 67.421 C 287.917 67.022,293.073 65.734,297.656 64.559 C 302.240 63.383,306.813 62.216,307.819 61.965 C 313.166 60.631,317.374 57.232,319.850 52.244 L 321.094 49.740 321.248 24.870 L 321.401 0.000 319.685 0.026 C 318.741 0.041,297.461 5.215,272.396 11.524 M317.448 67.719 C 316.589 67.952,312.018 69.110,307.292 70.291 C 302.565 71.472,297.292 72.796,295.573 73.234 C 293.854 73.672,289.635 74.726,286.198 75.577 C 282.760 76.427,278.542 77.486,276.823 77.931 C 275.104 78.375,272.878 78.933,271.875 79.171 C 269.665 79.694,258.230 82.545,253.906 83.651 C 252.188 84.091,247.031 85.376,242.448 86.506 C 237.865 87.637,232.708 88.925,230.990 89.369 C 229.271 89.813,225.052 90.872,221.615 91.723 C 218.177 92.573,213.958 93.624,212.240 94.059 C 185.705 100.767,113.082 118.997,110.938 119.487 C 103.315 121.231,98.573 126.062,96.940 133.750 C 96.249 137.005,96.108 181.557,96.788 181.977 C 97.026 182.125,99.077 181.769,101.345 181.187 C 103.613 180.605,106.406 179.923,107.552 179.672 C 108.698 179.421,113.854 178.129,119.010 176.801 C 124.167 175.473,129.792 174.061,131.510 173.665 C 133.229 173.268,137.448 172.216,140.885 171.326 C 144.323 170.436,148.542 169.382,150.260 168.983 C 151.979 168.585,157.135 167.295,161.719 166.118 C 166.302 164.940,171.458 163.651,173.177 163.253 C 174.896 162.855,180.052 161.566,184.635 160.389 C 189.219 159.211,194.375 157.921,196.094 157.521 C 197.813 157.121,200.977 156.337,203.125 155.778 C 209.309 154.170,212.827 153.277,219.661 151.582 C 234.299 147.952,239.069 146.763,244.010 145.514 C 246.875 144.790,252.031 143.502,255.469 142.652 C 258.906 141.802,263.125 140.743,264.844 140.298 C 266.563 139.854,268.789 139.298,269.792 139.063 C 270.794 138.827,273.021 138.271,274.740 137.827 C 276.458 137.382,280.677 136.324,284.115 135.475 C 287.552 134.626,292.591 133.360,295.313 132.662 C 298.034 131.963,302.135 130.972,304.427 130.459 C 312.191 128.721,317.184 125.326,319.836 119.982 L 321.094 117.448 321.247 92.318 L 321.401 67.188 320.206 67.241 C 319.548 67.270,318.307 67.485,317.448 67.719 M-0.000 211.190 L 0.000 222.396 4.427 222.396 L 8.854 222.396 8.854 266.146 L 8.854 309.896 4.427 309.896 L 0.000 309.896 0.000 320.833 L 0.000 331.771 19.792 331.771 L 39.583 331.771 39.583 320.833 L 39.583 309.896 34.896 309.896 L 30.208 309.896 30.235 285.547 C 30.260 262.939,30.320 261.347,31.074 263.281 C 31.520 264.427,32.294 266.302,32.793 267.448 C 33.293 268.594,34.126 270.703,34.645 272.135 C 35.164 273.568,35.784 274.962,36.024 275.234 C 36.263 275.507,36.458 276.027,36.458 276.391 C 36.458 276.755,37.021 278.290,37.709 279.802 C 38.397 281.315,39.776 284.674,40.774 287.266 C 41.772 289.859,43.060 293.023,43.638 294.298 C 44.215 295.572,45.530 298.804,46.561 301.480 C 47.591 304.157,48.810 307.203,49.270 308.251 C 50.228 310.434,50.363 310.762,52.613 316.406 C 53.526 318.698,54.572 321.276,54.935 322.135 C 55.299 322.995,56.308 325.456,57.176 327.604 L 58.756 331.510 68.701 331.652 L 78.646 331.793 78.646 277.095 L 78.646 222.396 83.333 222.396 L 88.021 222.396 88.021 211.198 L 88.021 200.000 67.969 200.000 L 47.917 200.000 47.917 211.198 L 47.917 222.396 52.604 222.396 L 57.292 222.396 57.259 247.786 C 57.240 262.079,57.034 272.722,56.786 272.135 C 56.545 271.563,53.257 263.242,49.481 253.646 C 45.704 244.049,42.196 235.260,41.685 234.115 C 41.174 232.969,40.460 231.094,40.098 229.948 C 39.736 228.802,38.980 226.810,38.418 225.521 C 37.355 223.083,36.758 221.641,36.260 220.313 C 36.099 219.883,34.251 215.195,32.153 209.896 L 28.337 200.260 14.169 200.122 L -0.000 199.983 -0.000 211.190 M105.853 203.516 C 104.119 205.449,101.282 208.555,99.549 210.417 L 96.397 213.802 96.375 265.972 L 96.354 318.143 100.391 322.466 C 102.611 324.843,105.472 327.909,106.748 329.280 L 109.070 331.771 129.665 331.782 L 150.260 331.793 156.881 324.881 L 163.501 317.969 163.521 266.058 L 163.542 214.147 161.589 212.109 C 160.514 210.988,157.554 207.805,155.010 205.035 L 150.384 200.000 129.695 200.000 L 109.006 200.000 105.853 203.516 M182.422 207.021 L 176.042 213.970 176.056 265.969 L 176.071 317.969 178.480 320.573 C 179.805 322.005,182.698 325.111,184.909 327.474 L 188.929 331.771 209.178 331.726 L 229.427 331.681 235.816 324.697 L 242.205 317.714 242.066 304.300 L 241.927 290.885 231.380 290.744 L 220.833 290.603 220.833 300.250 L 220.833 309.896 209.115 309.896 L 197.396 309.896 197.396 266.146 L 197.396 222.396 209.115 222.396 L 220.833 222.396 220.833 231.771 L 220.833 241.146 231.510 241.146 L 242.188 241.146 242.188 227.605 L 242.188 214.064 240.224 212.040 C 239.144 210.928,236.192 207.763,233.663 205.009 L 229.065 200.000 208.934 200.036 L 188.802 200.072 182.422 207.021 M264.281 203.776 C 262.299 205.853,259.329 209.025,257.682 210.826 L 254.688 214.100 254.697 266.034 L 254.706 317.969 259.666 323.177 C 262.394 326.042,265.230 329.147,265.968 330.078 L 267.311 331.771 287.557 331.771 L 307.802 331.771 311.356 327.995 C 313.310 325.918,316.067 322.930,317.481 321.354 C 318.895 319.779,320.228 318.411,320.443 318.316 C 320.658 318.220,320.833 311.951,320.833 304.384 L 320.833 290.625 310.156 290.625 L 299.479 290.625 299.479 300.260 L 299.479 309.896 287.760 309.896 L 276.042 309.896 276.042 266.146 L 276.042 222.396 287.760 222.396 L 299.479 222.396 299.479 231.771 L 299.479 241.146 310.156 241.146 L 320.833 241.146 320.833 227.552 L 320.833 213.958 318.618 211.711 C 317.400 210.475,314.443 207.334,312.049 204.732 L 307.695 200.000 287.789 200.000 L 267.884 200.000 264.281 203.776 M343.705 202.995 C 342.126 204.642,339.146 207.794,337.084 209.999 L 333.333 214.008 333.349 265.988 L 333.364 317.969 338.322 323.177 C 341.049 326.042,343.882 329.147,344.618 330.078 L 345.957 331.771 366.746 331.771 L 387.535 331.771 391.592 327.474 C 393.824 325.111,396.628 322.096,397.825 320.775 L 400.000 318.373 399.989 265.827 L 399.978 213.281 396.213 209.323 C 394.142 207.146,391.325 204.158,389.953 202.683 L 387.458 200.000 367.017 200.000 L 346.576 200.000 343.705 202.995 M142.188 266.146 L 142.188 309.896 129.688 309.896 L 117.188 309.896 117.188 266.146 L 117.188 222.396 129.688 222.396 L 142.188 222.396 142.188 266.146 M379.167 266.146 L 379.167 309.896 366.927 309.896 L 354.688 309.896 354.688 266.146 L 354.688 222.396 366.927 222.396 L 379.167 222.396 379.167 266.146 M8.854 354.688 C 8.854 357.465,8.970 357.813,9.896 357.813 C 10.903 357.813,10.938 358.160,10.938 368.229 C 10.938 378.299,10.903 378.646,9.896 378.646 C 8.980 378.646,8.854 378.993,8.854 381.510 L 8.854 384.375 14.323 384.375 L 19.792 384.375 19.792 381.510 C 19.792 378.993,19.665 378.646,18.750 378.646 C 17.790 378.646,17.711 378.310,17.742 374.349 C 17.779 369.575,17.681 369.521,20.350 375.781 C 20.961 377.214,21.883 379.323,22.401 380.469 C 22.918 381.615,23.472 382.962,23.633 383.464 C 23.869 384.199,24.534 384.375,27.067 384.375 L 30.208 384.375 30.208 371.094 C 30.208 358.160,30.236 357.813,31.250 357.813 C 32.176 357.813,32.292 357.465,32.292 354.688 L 32.292 351.563 26.823 351.563 L 21.354 351.563 21.354 354.688 C 21.354 357.465,21.470 357.813,22.396 357.813 C 23.357 357.813,23.434 358.146,23.396 362.109 L 23.355 366.406 22.225 364.028 C 21.043 361.541,20.198 359.556,18.195 354.557 L 16.996 351.563 12.925 351.563 L 8.854 351.563 8.854 354.688 M39.165 353.280 L 37.500 354.998 37.500 368.287 L 37.500 381.576 38.961 382.975 C 40.373 384.328,40.621 384.375,46.411 384.375 L 52.400 384.375 54.064 382.657 L 55.729 380.940 55.715 368.204 L 55.701 355.469 53.885 353.516 L 52.069 351.563 46.449 351.563 L 40.829 351.563 39.165 353.280 M74.563 353.372 L 72.917 355.181 72.917 368.378 L 72.917 381.576 74.377 382.975 C 75.805 384.343,75.988 384.375,82.413 384.375 C 90.629 384.375,91.146 383.986,91.146 377.794 L 91.146 373.958 88.021 373.958 L 84.896 373.958 84.896 376.302 L 84.896 378.646 82.031 378.646 L 79.167 378.646 79.167 368.229 L 79.167 357.813 82.031 357.813 L 84.896 357.813 84.896 360.156 L 84.896 362.500 88.021 362.500 L 91.146 362.500 91.146 358.694 C 91.146 355.345,90.980 354.689,89.768 353.225 L 88.391 351.563 82.300 351.563 L 76.209 351.563 74.563 353.372 M102.948 353.255 C 102.775 354.186,102.142 356.706,101.541 358.854 C 100.939 361.003,99.896 364.870,99.223 367.448 C 98.550 370.026,97.629 373.495,97.177 375.156 C 96.724 376.817,96.354 378.282,96.354 378.411 C 96.354 378.540,95.885 378.646,95.313 378.646 C 94.397 378.646,94.271 378.993,94.271 381.510 L 94.271 384.375 99.740 384.375 L 105.208 384.375 105.208 381.510 C 105.208 378.812,105.134 378.646,103.923 378.646 C 102.994 378.646,102.720 378.429,102.937 377.865 C 103.160 377.283,104.087 377.083,106.566 377.083 C 109.179 377.083,109.896 377.252,109.896 377.865 C 109.896 378.299,109.433 378.646,108.854 378.646 C 107.939 378.646,107.813 378.993,107.813 381.510 L 107.813 384.375 113.542 384.375 L 119.271 384.375 119.271 381.545 C 119.271 378.845,119.205 378.707,117.839 378.550 C 116.624 378.410,116.313 378.029,115.794 376.042 C 115.458 374.753,114.828 372.409,114.396 370.833 C 112.348 363.372,110.508 356.389,109.697 352.995 C 109.121 350.583,103.402 350.804,102.948 353.255 M121.875 354.688 C 121.875 357.465,121.991 357.813,122.917 357.813 C 123.924 357.813,123.958 358.160,123.958 368.229 C 123.958 378.299,123.924 378.646,122.917 378.646 C 122.001 378.646,121.875 378.993,121.875 381.510 L 121.875 384.375 127.344 384.375 L 132.813 384.375 132.813 381.510 C 132.813 378.993,132.686 378.646,131.771 378.646 C 130.836 378.646,130.729 378.299,130.729 375.260 C 130.729 370.699,131.035 370.934,134.495 378.150 L 137.480 384.375 140.615 384.375 L 143.750 384.375 143.750 381.510 C 143.750 379.021,143.617 378.646,142.738 378.646 C 141.534 378.646,138.172 372.282,139.190 371.928 C 141.780 371.026,142.188 369.639,142.188 361.719 C 142.188 351.164,142.636 351.563,130.753 351.563 L 121.875 351.563 121.875 354.688 M148.438 354.688 C 148.438 357.465,148.553 357.813,149.479 357.813 C 150.486 357.813,150.521 358.160,150.521 368.229 C 150.521 378.299,150.486 378.646,149.479 378.646 C 148.564 378.646,148.438 378.993,148.438 381.510 L 148.438 384.375 157.206 384.375 L 165.974 384.375 167.362 382.817 C 168.785 381.220,169.610 367.708,168.285 367.708 C 167.389 367.708,167.170 365.987,167.956 365.118 C 169.670 363.225,169.045 355.177,167.032 353.227 L 165.315 351.563 156.876 351.563 L 148.438 351.563 148.438 354.688 M175.102 353.280 L 173.438 354.998 173.438 361.251 L 173.438 367.504 175.155 369.169 C 176.819 370.782,177.013 370.833,181.405 370.833 L 185.938 370.833 185.938 374.740 L 185.938 378.646 183.073 378.646 L 180.208 378.646 180.208 376.563 L 180.208 374.479 176.823 374.479 L 173.438 374.479 173.438 377.762 C 173.438 380.793,173.570 381.174,175.155 382.710 L 176.873 384.375 182.865 384.375 L 188.858 384.375 190.523 382.657 L 192.188 380.940 192.188 374.161 C 192.188 365.227,191.687 364.583,184.737 364.583 L 180.208 364.583 180.208 361.198 L 180.208 357.813 183.073 357.813 L 185.938 357.813 185.938 359.635 L 185.938 361.458 189.063 361.458 L 192.188 361.458 192.188 357.971 C 192.188 352.287,191.158 351.563,183.078 351.563 L 176.767 351.563 175.102 353.280 M212.081 353.280 L 210.417 354.998 210.417 368.287 L 210.417 381.576 211.877 382.975 C 213.295 384.334,213.520 384.375,219.531 384.375 C 227.683 384.375,228.646 383.677,228.646 377.767 L 228.646 373.958 225.260 373.958 L 221.875 373.958 221.875 376.302 L 221.875 378.646 219.271 378.646 L 216.667 378.646 216.667 368.229 L 216.667 357.813 219.271 357.813 L 221.875 357.813 221.875 360.181 L 221.875 362.550 225.130 362.395 L 228.385 362.240 228.539 358.730 C 228.689 355.327,228.638 355.166,226.864 353.392 L 225.035 351.563 219.390 351.563 L 213.746 351.563 212.081 353.280 M234.980 353.372 L 233.333 355.181 233.333 368.220 L 233.333 381.259 234.722 382.817 L 236.110 384.375 242.171 384.375 L 248.233 384.375 249.898 382.657 L 251.563 380.940 251.563 368.176 L 251.563 355.412 249.800 353.487 L 248.037 351.563 242.331 351.563 L 236.626 351.563 234.980 353.372 M256.250 354.688 C 256.250 357.674,256.308 357.813,257.552 357.813 L 258.854 357.813 258.854 368.229 L 258.854 378.646 257.552 378.646 C 256.321 378.646,256.250 378.802,256.250 381.510 L 256.250 384.375 261.979 384.375 L 267.708 384.375 267.708 381.510 C 267.708 378.802,267.637 378.646,266.406 378.646 C 265.116 378.646,265.104 378.603,265.107 374.089 C 265.111 369.076,265.333 369.139,267.415 374.740 C 271.243 385.037,272.313 386.022,274.202 380.990 C 274.848 379.271,275.910 376.693,276.562 375.260 C 277.215 373.828,278.051 371.836,278.421 370.833 C 279.056 369.112,279.095 369.279,279.130 373.828 C 279.167 378.630,279.162 378.646,277.865 378.646 C 276.634 378.646,276.563 378.802,276.563 381.510 L 276.563 384.375 282.031 384.375 L 287.500 384.375 287.500 381.510 C 287.500 378.993,287.374 378.646,286.458 378.646 C 285.451 378.646,285.417 378.299,285.417 368.229 C 285.417 358.160,285.451 357.813,286.458 357.813 C 287.385 357.813,287.500 357.465,287.500 354.666 L 287.500 351.519 283.514 351.671 L 279.529 351.823 276.249 360.102 C 274.446 364.655,272.821 368.756,272.638 369.216 C 272.293 370.083,272.113 369.770,269.039 362.924 C 268.307 361.295,267.708 359.836,267.708 359.682 C 267.708 359.527,267.005 357.866,266.146 355.990 C 265.286 354.113,264.583 352.350,264.583 352.070 C 264.583 351.783,262.776 351.563,260.417 351.563 L 256.250 351.563 256.250 354.688 M292.708 354.688 C 292.708 357.465,292.824 357.813,293.750 357.813 C 294.757 357.813,294.792 358.160,294.792 368.229 C 294.792 378.299,294.757 378.646,293.750 378.646 C 292.835 378.646,292.708 378.993,292.708 381.510 L 292.708 384.375 298.177 384.375 L 303.646 384.375 303.646 381.510 C 303.646 378.993,303.520 378.646,302.604 378.646 C 301.662 378.646,301.563 378.299,301.563 375.000 L 301.563 371.354 305.599 371.346 C 309.295 371.338,309.778 371.212,311.328 369.845 L 313.021 368.352 313.021 361.357 C 313.021 354.372,313.019 354.359,311.560 352.962 L 310.099 351.563 301.404 351.563 L 292.708 351.563 292.708 354.688 M321.897 354.013 C 320.940 357.705,318.818 365.618,318.225 367.708 C 317.941 368.711,317.174 371.523,316.520 373.958 C 315.518 377.694,315.152 378.411,314.177 378.552 C 313.145 378.700,313.021 379.022,313.021 381.547 L 313.021 384.375 318.750 384.375 L 324.479 384.375 324.479 381.510 C 324.479 378.802,324.408 378.646,323.177 378.646 C 322.350 378.646,321.875 378.352,321.875 377.841 C 321.875 376.803,328.693 376.949,329.038 377.995 C 329.173 378.403,328.752 378.646,327.908 378.646 C 326.624 378.646,326.563 378.777,326.563 381.510 L 326.563 384.375 332.292 384.375 L 338.021 384.375 338.021 381.510 C 338.021 378.823,337.942 378.646,336.754 378.646 C 335.985 378.646,335.394 378.288,335.250 377.734 C 331.968 365.125,330.267 358.763,328.672 353.125 C 328.343 351.965,327.989 351.806,325.424 351.669 L 322.545 351.515 321.897 354.013 M341.146 354.688 C 341.146 357.465,341.262 357.813,342.188 357.813 C 343.194 357.813,343.229 358.160,343.229 368.229 C 343.229 378.299,343.194 378.646,342.188 378.646 C 341.272 378.646,341.146 378.993,341.146 381.510 L 341.146 384.375 346.615 384.375 L 352.083 384.375 352.083 381.510 C 352.083 378.802,352.012 378.646,350.781 378.646 C 349.485 378.646,349.479 378.623,349.491 373.828 C 349.502 369.337,349.551 369.116,350.214 370.573 C 351.675 373.786,353.015 376.933,354.480 380.593 L 355.990 384.362 358.984 384.369 L 361.979 384.375 361.979 371.094 L 361.979 357.813 363.281 357.813 C 364.525 357.813,364.583 357.674,364.583 354.688 L 364.583 351.563 359.115 351.563 L 353.646 351.563 353.646 354.688 C 353.646 357.465,353.762 357.813,354.688 357.813 C 355.648 357.813,355.729 358.160,355.729 362.270 C 355.729 365.110,355.540 366.611,355.208 366.406 C 354.922 366.229,354.688 365.776,354.688 365.400 C 354.688 364.772,354.095 363.288,351.552 357.552 C 351.044 356.406,350.265 354.590,349.820 353.516 L 349.011 351.563 345.079 351.563 L 341.146 351.563 341.146 354.688 M367.188 354.688 C 367.188 357.656,367.251 357.813,368.462 357.813 C 369.459 357.813,370.012 358.352,370.996 360.286 C 371.689 361.647,373.225 364.618,374.409 366.889 C 377.180 372.200,377.647 378.646,375.260 378.646 C 374.029 378.646,373.958 378.802,373.958 381.510 L 373.958 384.375 379.688 384.375 L 385.417 384.375 385.417 381.510 C 385.417 378.802,385.346 378.646,384.115 378.646 C 382.839 378.646,382.813 378.564,382.813 374.664 C 382.813 369.992,388.139 357.813,390.183 357.813 C 391.013 357.813,391.146 357.380,391.146 354.688 L 391.146 351.563 385.938 351.563 L 380.729 351.563 380.729 354.688 C 380.729 357.071,380.908 357.813,381.485 357.813 C 382.114 357.813,382.081 358.169,381.291 359.933 C 379.830 363.197,379.529 363.240,378.008 360.405 C 376.700 357.965,376.677 357.813,377.632 357.813 C 378.524 357.813,378.646 357.437,378.646 354.688 L 378.646 351.563 372.917 351.563 L 367.188 351.563 367.188 354.688 M48.958 368.229 L 48.958 378.646 46.354 378.646 L 43.750 378.646 43.750 368.229 L 43.750 357.813 46.354 357.813 L 48.958 357.813 48.958 368.229 M136.458 361.719 L 136.458 365.625 133.594 365.625 L 130.729 365.625 130.729 361.719 L 130.729 357.813 133.594 357.813 L 136.458 357.813 136.458 361.719 M162.500 360.677 L 162.500 363.542 159.635 363.542 L 156.771 363.542 156.771 360.677 L 156.771 357.813 159.635 357.813 L 162.500 357.813 162.500 360.677 M245.313 368.229 L 245.313 378.646 242.448 378.646 L 239.583 378.646 239.583 368.229 L 239.583 357.813 242.448 357.813 L 245.313 357.813 245.313 368.229 M307.292 361.458 L 307.292 365.104 304.427 365.104 L 301.563 365.104 301.563 361.458 L 301.563 357.813 304.427 357.813 L 307.292 357.813 307.292 361.458 M107.790 370.443 C 107.806 371.113,107.400 371.354,106.250 371.354 C 105.391 371.354,104.688 371.224,104.688 371.064 C 104.688 370.643,105.774 366.024,106.090 365.104 C 106.356 364.327,107.745 368.691,107.790 370.443 M326.222 366.536 C 327.356 370.671,327.227 371.354,325.311 371.354 C 323.564 371.354,323.510 371.297,323.942 369.922 C 324.190 369.134,324.534 367.845,324.706 367.057 C 325.061 365.439,325.846 365.169,326.222 366.536 M162.500 374.219 L 162.500 378.646 159.635 378.646 L 156.771 378.646 156.771 374.219 L 156.771 369.792 159.635 369.792 L 162.500 369.792 162.500 374.219 " stroke="none" fill="#000000" fill-rule="evenodd"></path></g></svg>