<?xml version="1.0" standalone="no"?>
<!DOCTYPE svg PUBLIC "-//W3C//DTD SVG 20010904//EN"
 "http://www.w3.org/TR/2001/REC-SVG-20010904/DTD/svg10.dtd">
<svg version="1.0" xmlns="http://www.w3.org/2000/svg"
 width="448.000000pt" height="448.000000pt" viewBox="0 0 448.000000 448.000000"
 preserveAspectRatio="xMidYMid meet">

<g transform="translate(0.000000,448.000000) scale(0.100000,-0.100000)"
fill="#ffffff" stroke="none">
<path d="M2085 4474 c-279 -21 -549 -91 -790 -204 -513 -240 -928 -678 -1134
-1197 -187 -471 -211 -981 -70 -1463 111 -377 310 -704 596 -980 399 -386 891
-597 1456 -626 l137 -7 0 872 0 871 -240 0 -240 0 2 282 3 283 235 2 235 1 6
289 c6 249 9 298 27 363 54 193 172 342 332 418 132 62 206 76 399 75 91 0
215 -4 278 -8 l113 -7 0 -253 0 -253 -194 -2 c-106 0 -208 -5 -225 -10 -54
-15 -96 -47 -121 -92 -24 -42 -25 -49 -28 -283 l-3 -240 271 2 c212 1 272 -2
276 -12 4 -10 -44 -419 -61 -522 l-6 -33 -239 0 -240 0 0 -825 c0 -510 4 -825
9 -825 22 0 224 76 318 120 814 381 1322 1212 1290 2110 -21 585 -260 1122
-684 1530 -337 326 -761 536 -1221 605 -96 15 -393 26 -487 19z"/>
</g>
</svg>
