<?xml version="1.0" standalone="no"?>
<!DOCTYPE svg PUBLIC "-//W3C//DTD SVG 20010904//EN"
 "http://www.w3.org/TR/2001/REC-SVG-20010904/DTD/svg10.dtd">
<svg version="1.0" xmlns="http://www.w3.org/2000/svg"
 width="448.000000pt" height="448.000000pt" viewBox="0 0 448.000000 448.000000"
 preserveAspectRatio="xMidYMid meet">

<g transform="translate(0.000000,448.000000) scale(0.100000,-0.100000)"
fill="#000000" stroke="none">
<path d="M2040 4470 c-756 -66 -1426 -515 -1786 -1195 -203 -384 -290 -853
-239 -1288 61 -524 293 -991 672 -1357 338 -328 748 -530 1224 -606 144 -23
513 -23 659 0 211 33 434 101 617 186 870 408 1389 1334 1278 2283 -23 201
-65 368 -142 567 -223 581 -725 1072 -1313 1284 -111 40 -321 93 -436 111
-125 18 -406 26 -534 15z m659 -950 c213 -11 319 -30 423 -78 184 -84 313
-246 368 -462 36 -142 50 -713 30 -1190 -12 -288 -49 -420 -154 -555 -95 -123
-228 -206 -388 -245 -220 -53 -1255 -54 -1475 0 -268 65 -444 239 -513 510
-53 209 -53 1271 0 1480 29 114 77 212 142 288 142 167 310 236 617 251 231
12 729 12 950 1z"/>
<path d="M1635 3279 c-262 -34 -399 -176 -436 -449 -6 -46 -9 -294 -7 -645 4
-564 4 -571 28 -649 52 -177 169 -283 360 -328 67 -16 1118 -23 1244 -8 280
32 419 169 457 450 6 46 9 294 7 645 -4 564 -4 571 -28 649 -52 177 -168 283
-360 328 -57 14 -1167 20 -1265 7z m1355 -215 c80 -32 115 -144 68 -214 -38
-56 -72 -74 -132 -74 -65 1 -107 27 -136 84 -31 61 -23 119 23 169 46 50 109
62 177 35z m-541 -200 c110 -36 221 -111 294 -198 300 -360 148 -900 -295
-1051 -74 -25 -97 -29 -208 -29 -111 0 -134 4 -208 29 -443 151 -595 691 -295
1051 94 112 242 198 388 224 87 16 233 4 324 -26z"/>
<path d="M2162 2660 c-119 -18 -257 -123 -308 -235 -78 -170 -46 -355 83 -484
70 -69 147 -109 237 -122 86 -12 183 2 255 37 66 32 159 122 190 182 140 274
-37 600 -339 625 -36 3 -89 1 -118 -3z"/>
</g>
</svg>
